<?xml version="1.0" encoding="UTF-8"?>
<svg width="52px" height="52px" viewBox="0 0 52 52" version="1.1" xmlns="http://www.w3.org/2000/svg" xmlns:xlink="http://www.w3.org/1999/xlink">
    <!-- Generator: Sketch 47.1 (45422) - http://www.bohemiancoding.com/sketch -->
    <title>box-bulge</title>
    <desc>Created with Sketch.</desc>
    <defs></defs>
    <g id="Page-2" stroke="none" stroke-width="1" fill="none" fill-rule="evenodd">
        <g id="bulge" fill="#FFFFFF">
            <path d="M4.27402718,1.3223566 C8.65091214,0.440785534 15.8929031,-5.77315973e-15 26,0 C36.1072635,3.99680289e-15 43.3493265,0.440800061 47.7261892,1.32240018 C49.2484011,1.628999 50.4376597,2.81962979 50.742512,4.34219248 C51.5808373,8.52914789 52,15.1064418 52,26 C52,36.2819015 51.6265865,44.1660449 50.8797596,47.7265042 C50.5686073,49.2098818 49.416462,50.3729043 47.9360724,50.6979759 C43.9830921,51.565992 36.0290927,52 26,52 C15.5724062,52 8.92287604,51.5308165 4.12548363,50.5924496 C2.59542285,50.2931631 1.39665869,49.1010588 1.08886012,47.5726877 C0.362953373,43.9682039 0,36.1353327 0,26 C0,15.1072665 0.419226357,8.52997162 1.25767907,4.34218958 C1.56252155,2.81960561 2.75179623,1.62895702 4.27402718,1.3223566 Z" id="box-bulge"></path>
        </g>
    </g>
</svg>